<svg preserveAspectRatio="none" width="100%" height="100%" overflow="visible" style="display: block;" viewBox="0 0 159.991 159.995" fill="none" xmlns="http://www.w3.org/2000/svg">
<g id="Group">
<g id="Group_2">
<path id="Vector" d="M86.4277 150.141C85.5907 150.534 84.8971 150.71 84.1202 150.71C82.2705 150.71 81.3965 149.41 81.3965 147.445C81.3965 145.48 82.3306 144.296 84.2636 144.296C85.2069 144.296 85.8127 144.527 86.2983 144.846L85.785 145.753C85.4381 145.521 84.9156 145.36 84.2728 145.36C83.163 145.36 82.659 146.201 82.659 147.431C82.659 148.888 83.1907 149.683 84.2358 149.683C84.6381 149.683 85.022 149.6 85.3179 149.466V148.328H84.4671L84.4023 147.436H86.4277V150.141Z" fill="var(--fill-0, white)"/>
<path id="Vector_2" d="M91.4358 148.365C91.4358 149.896 90.6636 150.71 89.3272 150.71C87.9815 150.71 87.2185 149.901 87.2185 148.365C87.2185 147.043 87.9491 146.035 89.3272 146.035C90.7052 146.035 91.4358 147.043 91.4358 148.365ZM90.2058 148.365C90.2058 147.283 89.8867 146.909 89.3272 146.909C88.7676 146.909 88.4578 147.292 88.4578 148.365C88.4578 149.41 88.7399 149.831 89.3272 149.831C89.9145 149.831 90.2058 149.438 90.2058 148.365Z" fill="var(--fill-0, white)"/>
<path id="Vector_3" d="M93.4428 146.585C93.6462 146.312 94.1318 146.035 94.6312 146.035C95.6856 146.035 96.4439 146.788 96.4439 148.365C96.4439 149.914 95.5283 150.71 94.4832 150.71C93.8405 150.71 93.4659 150.46 93.1838 150.076L92.9619 150.617H92.3237V144.296H93.5214V145.864L93.4382 146.585H93.4428ZM93.526 149.373C93.711 149.618 94.0208 149.831 94.3399 149.831C94.8624 149.831 95.2462 149.447 95.2462 148.365C95.2462 147.283 94.9087 146.918 94.3584 146.918C94.0578 146.918 93.7295 147.075 93.526 147.274V149.373Z" fill="var(--fill-0, white)"/>
<path id="Vector_4" d="M97.7202 150.617V147.006L97.2069 146.895V146.123H98.9133V150.613H97.7202V150.617ZM97.6832 144.296H98.8948V145.383H97.6832V144.296Z" fill="var(--fill-0, white)"/>
<path id="Vector_5" d="M101.031 148.694C101.031 149.41 101.434 149.803 102.187 149.803C102.654 149.803 103.103 149.609 103.496 149.42L103.727 150.261C103.353 150.46 102.756 150.71 102.039 150.71C100.638 150.71 99.8197 149.85 99.8197 148.365C99.8197 146.983 100.481 146.035 101.919 146.035C103.274 146.035 103.815 147.043 103.815 148.171V148.694H101.031ZM101.864 146.913C101.267 146.913 101.031 147.454 101.031 147.986H102.668C102.668 147.408 102.488 146.913 101.864 146.913Z" fill="var(--fill-0, white)"/>
<path id="Vector_6" d="M107.274 147.126C107.131 147.08 106.927 147.052 106.714 147.052C106.395 147.052 106.113 147.191 105.91 147.353V150.613H104.721V146.123H105.554C105.6 146.335 105.646 146.529 105.683 146.728H105.72C105.854 146.409 106.261 146.039 106.788 146.039C107.029 146.039 107.2 146.076 107.302 146.104C107.292 146.442 107.292 146.779 107.274 147.121" fill="var(--fill-0, white)"/>
<path id="Vector_7" d="M110.784 150.617V147.949C110.784 147.274 110.525 146.95 109.979 146.95C109.665 146.95 109.401 147.089 109.188 147.223V150.613H107.986V146.123H108.809L108.994 146.636C109.249 146.335 109.743 146.03 110.414 146.03C111.551 146.03 112 146.701 112 147.838V150.613H110.784V150.617Z" fill="var(--fill-0, white)"/>
<path id="Vector_8" d="M117.017 148.365C117.017 149.896 116.245 150.71 114.909 150.71C113.563 150.71 112.8 149.901 112.8 148.365C112.8 147.043 113.535 146.035 114.909 146.035C116.268 146.035 117.017 147.043 117.017 148.365ZM115.787 148.365C115.787 147.283 115.464 146.909 114.904 146.909C114.345 146.909 114.035 147.292 114.035 148.365C114.035 149.41 114.317 149.831 114.904 149.831C115.491 149.831 115.787 149.438 115.787 148.365Z" fill="var(--fill-0, white)"/>
<path id="Vector_9" d="M122.839 146.479C122.765 146.22 122.728 145.993 122.728 145.655V144.301H123.921V150.622H122.95L122.812 150.127C122.631 150.4 122.197 150.714 121.618 150.714C120.601 150.714 119.787 149.979 119.787 148.379C119.787 146.895 120.629 146.044 121.72 146.044C122.206 146.044 122.59 146.21 122.839 146.483M122.728 147.163C122.548 147.052 122.261 146.941 121.914 146.941C121.346 146.941 120.99 147.325 120.99 148.37C120.99 149.443 121.332 149.845 121.901 149.845C122.201 149.845 122.506 149.702 122.733 149.461V147.163H122.728Z" fill="var(--fill-0, white)"/>
<path id="Vector_10" d="M126.039 148.694C126.039 149.41 126.442 149.803 127.195 149.803C127.662 149.803 128.111 149.609 128.509 149.42L128.74 150.261C128.365 150.46 127.769 150.71 127.052 150.71C125.651 150.71 124.832 149.85 124.832 148.365C124.832 146.983 125.489 146.035 126.932 146.035C128.287 146.035 128.828 147.043 128.828 148.171V148.694H126.039ZM126.872 146.913C126.275 146.913 126.039 147.454 126.039 147.986H127.676C127.676 147.408 127.496 146.913 126.872 146.913Z" fill="var(--fill-0, white)"/>
<path id="Vector_11" d="M134.28 150.71C132.536 150.71 131.612 149.535 131.612 147.477C131.612 145.581 132.527 144.296 134.28 144.296C135.121 144.296 135.884 144.481 136.388 144.818L135.931 145.771C135.612 145.535 135.052 145.35 134.409 145.35C133.383 145.35 132.869 146.113 132.869 147.468C132.869 148.897 133.383 149.66 134.391 149.66C134.997 149.66 135.602 149.406 136.023 149.091L136.407 150.053C135.792 150.474 135.098 150.71 134.28 150.71Z" fill="var(--fill-0, white)"/>
<path id="Vector_12" d="M137.23 150.617V144.296H138.428V145.956C138.428 146.266 138.331 146.576 138.312 146.65C138.566 146.34 138.941 146.035 139.584 146.035C140.879 146.035 141.244 146.705 141.244 147.843V150.617H140.028V147.949C140.028 147.829 140.009 147.741 139.963 147.676C139.926 147.172 139.667 146.955 139.223 146.955C138.909 146.955 138.645 147.094 138.432 147.228V150.617H137.235H137.23Z" fill="var(--fill-0, white)"/>
<path id="Vector_13" d="M142.58 150.617V147.006L142.067 146.895V146.123H143.773V150.613H142.58V150.617ZM142.543 144.296H143.75V145.383H142.543V144.296Z" fill="var(--fill-0, white)"/>
<path id="Vector_14" d="M144.865 149.429V144.301H146.044V149.369C146.044 149.743 146.271 149.803 146.765 149.803V150.645C146.765 150.645 146.418 150.719 146.109 150.719C145.193 150.719 144.865 150.234 144.865 149.434" fill="var(--fill-0, white)"/>
<path id="Vector_15" d="M148.587 148.694C148.587 149.41 148.99 149.803 149.743 149.803C150.21 149.803 150.659 149.609 151.052 149.42L151.283 150.261C150.909 150.46 150.312 150.71 149.6 150.71C148.199 150.71 147.38 149.85 147.38 148.365C147.38 146.983 148.042 146.035 149.48 146.035C150.835 146.035 151.376 147.043 151.376 148.171V148.694H148.592H148.587ZM149.42 146.913C148.823 146.913 148.587 147.454 148.587 147.986H150.224C150.224 147.408 150.039 146.913 149.42 146.913Z" fill="var(--fill-0, white)"/>
<path id="Vector_16" d="M82.6358 24.541H80.9942L83.3387 15.8936H86.1318L88.4023 24.541H86.5202L86.0717 22.5942H83.0983L82.6358 24.541ZM84.3514 17.3642L83.4035 21.2347H85.7619L84.8786 17.3642H84.3514Z" fill="var(--fill-0, white)"/>
<path id="Vector_17" d="M94.9688 18.2613L94.941 19.5052C94.6451 19.4913 94.1827 19.4312 93.7618 19.2879C94.0439 19.5468 94.3399 19.8659 94.3907 20.2775C94.3907 21.8173 92.8647 22.4324 91.8012 22.4324C91.5561 22.4324 91.2647 22.3815 90.9919 22.3168C90.7977 22.3815 90.6867 22.4971 90.6867 22.6636C90.6867 23.3434 94.6728 22.548 94.6728 24.9064C94.6728 26.3815 93.2624 27.1861 91.6856 27.1861C90.3676 27.1861 89.0358 26.6081 89.0358 25.4566C89.0358 24.652 89.6786 24.2266 90.7006 24.074C89.9191 23.9861 89.1376 23.741 89.1376 23.0104C89.1376 22.4879 89.6231 22.0994 90.3306 22.0486C89.7017 21.7017 89.2023 21.1792 89.2023 20.2821C89.2023 18.6173 90.7792 18.141 91.7919 18.141C92.4717 18.141 93.8821 18.2566 94.9688 18.2705M91.5468 24.1896C90.9549 24.2405 90.585 24.5734 90.585 25.1145C90.585 25.6647 91.0844 26.0624 91.7642 26.0624C92.5225 26.0624 93.0173 25.6786 93.0173 25.0266C93.0173 24.4763 92.5318 24.2682 91.5422 24.1942M92.9017 20.2728C92.9017 19.5283 92.2728 19.3387 91.7873 19.3387C91.3017 19.3387 90.659 19.5329 90.659 20.2728C90.659 21.0682 91.2601 21.2578 91.7873 21.2578C92.3145 21.2578 92.9017 21.0682 92.9017 20.2728Z" fill="var(--fill-0, white)"/>
<path id="Vector_18" d="M97.4428 21.8497C97.4428 22.8486 98.0069 23.3988 99.0566 23.3988C99.6994 23.3988 100.351 23.1538 100.902 22.8717L101.221 24.0509C100.694 24.3329 99.8381 24.6659 98.8486 24.6659C96.9156 24.6659 95.7595 23.4636 95.7595 21.3873C95.7595 19.4543 96.6936 18.1318 98.7052 18.1318C100.601 18.1318 101.346 19.5422 101.346 21.1191V21.8497H97.4335H97.4428ZM98.622 19.3618C97.7896 19.3618 97.4428 20.1202 97.4428 20.8601H99.7364C99.7364 20.0509 99.4913 19.3618 98.622 19.3618Z" fill="var(--fill-0, white)"/>
<path id="Vector_19" d="M106.469 24.541V20.8139C106.469 19.8659 106.109 19.4173 105.341 19.4173C104.906 19.4173 104.536 19.6069 104.24 19.8012V24.541H102.562V18.2613H103.718L103.972 18.978C104.333 18.5526 105.022 18.1318 105.961 18.1318C107.551 18.1318 108.18 19.0659 108.18 20.6566V24.541H106.474H106.469Z" fill="var(--fill-0, white)"/>
<path id="Vector_20" d="M114.497 24.1202C114.136 24.3145 113.295 24.6705 112.342 24.6705C110.469 24.6705 109.346 23.6069 109.346 21.4012C109.346 19.3526 110.474 18.1318 112.333 18.1318C113.165 18.1318 113.882 18.2983 114.483 18.6451L114.049 19.7873C113.6 19.5191 113.022 19.4035 112.472 19.4035C111.602 19.4035 111.047 19.9954 111.047 21.4058C111.047 22.8162 111.575 23.4035 112.481 23.4035C113.133 23.4035 113.776 23.1584 114.187 22.9272L114.492 24.1202H114.497Z" fill="var(--fill-0, white)"/>
<path id="Vector_21" d="M116.079 24.541V19.4636L115.348 19.311V18.2613H117.743V24.541H116.079ZM116.028 15.6994H117.72V17.2254H116.028V15.6994Z" fill="var(--fill-0, white)"/>
<path id="Vector_22" d="M123.089 24.541L122.858 23.7965C122.539 24.2312 121.91 24.6705 121.027 24.6705C119.773 24.6705 118.927 23.8613 118.927 22.659C118.927 21.4936 119.787 20.8 121.299 20.8H122.617V20.4809C122.617 19.6717 122.155 19.4173 121.517 19.4173C120.772 19.4173 120.148 19.6116 119.635 19.8428L119.209 18.6497C119.838 18.3815 120.694 18.1364 121.683 18.1364C123.464 18.1364 124.231 18.9549 124.231 20.5595V24.5457H123.089V24.541ZM122.613 21.7988H121.572C120.883 21.7988 120.56 22.1318 120.56 22.6035C120.56 23.1815 120.869 23.5283 121.494 23.5283C121.891 23.5283 122.298 23.348 122.608 23.1029V21.7942L122.613 21.7988Z" fill="var(--fill-0, white)"/>
<path id="Vector_23" d="M132.472 18.7514C132.37 18.3908 132.314 18.0717 132.314 17.6V15.704H133.979V24.5457H132.62L132.425 23.852C132.171 24.2358 131.57 24.6705 130.761 24.6705C129.336 24.6705 128.199 23.6439 128.199 21.4012C128.199 19.3249 129.378 18.1318 130.904 18.1318C131.584 18.1318 132.12 18.363 132.467 18.7468M132.31 19.6948C132.055 19.5422 131.658 19.385 131.168 19.385C130.372 19.385 129.873 19.9214 129.873 21.3827C129.873 22.8439 130.345 23.4451 131.14 23.4451C131.565 23.4451 131.986 23.2416 132.305 22.9087V19.6902L132.31 19.6948Z" fill="var(--fill-0, white)"/>
<path id="Vector_24" d="M136.883 21.8497C136.883 22.8486 137.447 23.3988 138.497 23.3988C139.14 23.3988 139.792 23.1538 140.342 22.8717L140.661 24.0509C140.134 24.3329 139.279 24.6659 138.289 24.6659C136.356 24.6659 135.2 23.4636 135.2 21.3873C135.2 19.4543 136.134 18.1318 138.146 18.1318C140.042 18.1318 140.786 19.5422 140.786 21.1191V21.8497H136.874H136.883ZM138.062 19.3618C137.23 19.3618 136.883 20.1202 136.883 20.8601H139.177C139.177 20.0509 138.932 19.3618 138.062 19.3618Z" fill="var(--fill-0, white)"/>
<path id="Vector_25" d="M85.1376 38.5619C82.7006 38.5619 81.3965 36.948 81.3965 34.0624C81.3965 31.3711 82.6913 29.6555 85.1376 29.6555C86.3168 29.6555 87.3803 29.9098 88.0832 30.3861L87.4405 31.7457C86.9919 31.3988 86.2104 31.1445 85.3133 31.1445C83.8798 31.1445 83.1584 32.1572 83.1584 34.0532C83.1584 36.0509 83.8751 37.0775 85.2855 37.0775C86.1318 37.0775 86.978 36.7214 87.5653 36.2821L88.1064 37.6416C87.2462 38.2335 86.2751 38.5665 85.1329 38.5665" fill="var(--fill-0, white)"/>
<path id="Vector_26" d="M93.0728 38.4324L92.8416 37.6879C92.5225 38.1225 91.8936 38.5619 91.0104 38.5619C89.7526 38.5619 88.9064 37.7526 88.9064 36.5503C88.9064 35.385 89.7665 34.6913 91.2786 34.6913H92.5965V34.3723C92.5965 33.563 92.1341 33.3087 91.496 33.3087C90.7514 33.3087 90.1225 33.5029 89.6139 33.7341L89.1884 32.541C89.8173 32.2728 90.6728 32.0277 91.6624 32.0277C93.4428 32.0277 94.215 32.8462 94.215 34.4509V38.437H93.0728V38.4324ZM92.5965 35.6902H91.5561C90.8671 35.6902 90.5434 36.0231 90.5434 36.4948C90.5434 37.0728 90.8532 37.4197 91.4775 37.4197C91.8751 37.4197 92.2821 37.2393 92.5919 36.9942V35.6855L92.5965 35.6902Z" fill="var(--fill-0, white)"/>
<path id="Vector_27" d="M95.6393 36.7676V29.5908H97.2902V36.6751C97.2902 37.2023 97.6093 37.2763 98.3029 37.2763V38.4555C98.3029 38.4555 97.8173 38.5572 97.3827 38.5572C96.1017 38.5572 95.6393 37.8775 95.6393 36.763" fill="var(--fill-0, white)"/>
<path id="Vector_28" d="M99.8567 38.4324V33.3549L99.126 33.2023V32.1526H101.521V38.4324H99.8567ZM99.8058 29.5908H101.498V31.1168H99.8058V29.5908Z" fill="var(--fill-0, white)"/>
<path id="Vector_29" d="M107.061 32.6428C106.96 32.2821 106.904 31.963 106.904 31.4913V29.5954H108.569V38.437H107.209L107.015 37.7434C106.761 38.1272 106.16 38.5618 105.35 38.5618C103.926 38.5618 102.788 37.5353 102.788 35.2925C102.788 33.2162 103.968 32.0231 105.494 32.0231C106.173 32.0231 106.71 32.2543 107.057 32.6382M106.899 33.5861C106.645 33.4335 106.247 33.2763 105.757 33.2763C104.962 33.2763 104.462 33.8127 104.462 35.274C104.462 36.7723 104.934 37.3364 105.729 37.3364C106.155 37.3364 106.576 37.1329 106.895 36.8V33.5815L106.899 33.5861Z" fill="var(--fill-0, white)"/>
<path id="Vector_30" d="M113.905 38.4324L113.674 37.6879C113.355 38.1225 112.726 38.5619 111.843 38.5619C110.585 38.5619 109.739 37.7526 109.739 36.5503C109.739 35.385 110.599 34.6913 112.111 34.6913H113.429V34.3723C113.429 33.563 112.966 33.3087 112.328 33.3087C111.584 33.3087 110.955 33.5029 110.446 33.7341L110.021 32.541C110.65 32.2728 111.505 32.0277 112.495 32.0277C114.275 32.0277 115.047 32.8462 115.047 34.4509V38.437H113.905V38.4324ZM113.429 35.6902H112.388C111.699 35.6902 111.376 36.0231 111.376 36.4948C111.376 37.0728 111.686 37.4197 112.31 37.4197C112.708 37.4197 113.114 37.2393 113.424 36.9942V35.6855L113.429 35.6902Z" fill="var(--fill-0, white)"/>
<path id="Vector_31" d="M120.523 32.6428C120.421 32.2821 120.365 31.963 120.365 31.4913V29.5954H122.03V38.437H120.671L120.476 37.7434C120.222 38.1272 119.621 38.5618 118.812 38.5618C117.387 38.5618 116.25 37.5353 116.25 35.2925C116.25 33.2162 117.429 32.0231 118.955 32.0231C119.635 32.0231 120.171 32.2543 120.518 32.6382M120.361 33.5861C120.106 33.4335 119.709 33.2763 119.218 33.2763C118.423 33.2763 117.924 33.8127 117.924 35.274C117.924 36.7723 118.395 37.3364 119.191 37.3364C119.616 37.3364 120.037 37.1329 120.356 36.8V33.5815L120.361 33.5861Z" fill="var(--fill-0, white)"/>
<path id="Vector_32" d="M130.331 32.6428C130.229 32.2821 130.173 31.963 130.173 31.4913V29.5954H131.838V38.437H130.479L130.284 37.7434C130.03 38.1272 129.429 38.5618 128.62 38.5618C127.2 38.5618 126.058 37.5353 126.058 35.2925C126.058 33.2162 127.237 32.0231 128.763 32.0231C129.443 32.0231 129.979 32.2543 130.326 32.6382M130.169 33.5861C129.914 33.4335 129.517 33.2763 129.027 33.2763C128.231 33.2763 127.732 33.8127 127.732 35.274C127.732 36.7723 128.203 37.3364 128.999 37.3364C129.424 37.3364 129.845 37.1329 130.164 36.8V33.5815L130.169 33.5861Z" fill="var(--fill-0, white)"/>
<path id="Vector_33" d="M134.742 35.741C134.742 36.7399 135.306 37.2902 136.356 37.2902C136.999 37.2902 137.651 37.0451 138.201 36.763L138.52 37.9422C137.993 38.2243 137.138 38.5572 136.148 38.5572C134.215 38.5572 133.059 37.3549 133.059 35.2786C133.059 33.3457 133.993 32.0231 136.005 32.0231C137.901 32.0231 138.645 33.4335 138.645 35.0104V35.741H134.733H134.742ZM135.921 33.2532C135.089 33.2532 134.742 34.0116 134.742 34.7514H137.036C137.036 33.9422 136.791 33.2532 135.921 33.2532Z" fill="var(--fill-0, white)"/>
<path id="Vector_34" d="M142.654 36.7676V29.5908H144.305V36.6751C144.305 37.2023 144.624 37.2763 145.318 37.2763V38.4555C145.318 38.4555 144.832 38.5572 144.398 38.5572C143.117 38.5572 142.654 37.8775 142.654 36.763" fill="var(--fill-0, white)"/>
<path id="Vector_35" d="M150.234 38.4324L150.002 37.6879C149.683 38.1225 149.054 38.5619 148.171 38.5619C146.913 38.5619 146.067 37.7526 146.067 36.5503C146.067 35.348 146.927 34.6913 148.439 34.6913H149.757V34.3723C149.757 33.563 149.295 33.3087 148.657 33.3087C147.912 33.3087 147.283 33.5029 146.775 33.7341L146.349 32.541C146.978 32.2728 147.834 32.0277 148.823 32.0277C150.603 32.0277 151.376 32.8462 151.376 34.4509V38.437H150.234V38.4324ZM149.757 35.6902H148.717C148.028 35.6902 147.704 36.0231 147.704 36.4948C147.704 37.0728 148.014 37.4197 148.638 37.4197C149.036 37.4197 149.443 37.2393 149.753 36.9942V35.6855L149.757 35.6902Z" fill="var(--fill-0, white)"/>
<path id="Vector_36" d="M81.674 52.3237V43.6717H86.9919V45.096H83.3526V47.2231H86.1318L86.0069 48.7121H83.3526V50.9272H86.9919V52.3237H81.674Z" fill="var(--fill-0, white)"/>
<path id="Vector_37" d="M91.778 46.5295C91.6763 46.1688 91.6208 45.8497 91.6208 45.378V43.4821H93.2855V52.3237H91.926L91.7318 51.6347C91.4775 52.0185 90.8763 52.4532 90.0671 52.4532C88.6428 52.4532 87.5052 51.4266 87.5052 49.1838C87.5052 47.1075 88.6844 45.9144 90.2104 45.9144C90.8902 45.9144 91.4266 46.1457 91.7734 46.5295M91.6162 47.4775C91.3619 47.3202 90.9642 47.1676 90.474 47.1676C89.6786 47.1676 89.1792 47.704 89.1792 49.1653C89.1792 50.6636 89.6509 51.2277 90.4462 51.2277C90.8717 51.2277 91.2925 51.0243 91.6116 50.6913V47.4728L91.6162 47.4775Z" fill="var(--fill-0, white)"/>
<path id="Vector_38" d="M99.1353 52.3237L98.8809 51.5561C98.585 51.9399 97.9191 52.4532 96.9202 52.4532C95.3572 52.4532 94.6405 51.5838 94.6405 49.8543V46.0486H96.3052V49.8682C96.3052 50.8301 96.652 51.1769 97.4058 51.1769C97.8405 51.1769 98.2382 51.0104 98.5341 50.8069V46.0532H100.236V52.3329H99.1353V52.3237Z" fill="var(--fill-0, white)"/>
<path id="Vector_39" d="M106.585 51.9029C106.224 52.0971 105.383 52.4532 104.43 52.4532C102.557 52.4532 101.434 51.3896 101.434 49.1838C101.434 47.1353 102.562 45.9145 104.421 45.9145C105.253 45.9145 105.97 46.0809 106.571 46.4277L106.136 47.5699C105.688 47.3017 105.11 47.1861 104.56 47.1861C103.69 47.1861 103.135 47.778 103.135 49.1838C103.135 50.6081 103.662 51.1815 104.569 51.1815C105.221 51.1815 105.864 50.941 106.275 50.7098L106.58 51.9029H106.585Z" fill="var(--fill-0, white)"/>
<path id="Vector_40" d="M111.524 52.3237L111.292 51.5792C110.973 52.0139 110.345 52.4532 109.461 52.4532C108.203 52.4532 107.357 51.6439 107.357 50.4416C107.357 49.2393 108.217 48.5827 109.729 48.5827H111.047V48.2636C111.047 47.4543 110.585 47.2 109.947 47.2C109.202 47.2 108.578 47.3942 108.065 47.6254L107.639 46.4324C108.268 46.1642 109.124 45.9191 110.113 45.9191C111.894 45.9191 112.666 46.7376 112.666 48.3422V52.3283H111.524V52.3237ZM111.047 49.5815H110.007C109.318 49.5815 108.994 49.9145 108.994 50.3908C108.994 50.9688 109.304 51.311 109.928 51.311C110.326 51.311 110.733 51.1306 111.043 50.8902V49.5815H111.047Z" fill="var(--fill-0, white)"/>
<path id="Vector_41" d="M119.075 51.9029C118.714 52.0971 117.873 52.4532 116.92 52.4532C115.047 52.4532 113.924 51.3896 113.924 49.1838C113.924 47.1353 115.052 45.9145 116.911 45.9145C117.743 45.9145 118.46 46.0809 119.061 46.4277L118.627 47.5699C118.178 47.3017 117.6 47.1861 117.05 47.1861C116.18 47.1861 115.625 47.778 115.625 49.1838C115.625 50.6081 116.153 51.1815 117.059 51.1815C117.711 51.1815 118.354 50.941 118.765 50.7098L119.071 51.9029H119.075Z" fill="var(--fill-0, white)"/>
<path id="Vector_42" d="M120.652 52.3237V47.2509L119.921 47.0936V46.0439H122.317V52.3237H120.652ZM120.601 43.4821H122.294V45.0081H120.601V43.4821Z" fill="var(--fill-0, white)"/>
<path id="Vector_43" d="M129.434 49.1699C129.434 51.311 128.361 52.4486 126.488 52.4486C124.601 52.4486 123.538 51.3202 123.538 49.1699C123.538 47.3249 124.564 45.9145 126.488 45.9145C128.412 45.9145 129.434 47.3249 129.434 49.1699ZM124.934 45.0682L124.768 44.1064L128.009 43.1954L128.227 44.4254L124.934 45.0636V45.0682ZM127.713 49.1699C127.713 47.6578 127.265 47.1306 126.483 47.1306C125.702 47.1306 125.267 47.6671 125.267 49.1699C125.267 50.6312 125.665 51.2185 126.483 51.2185C127.302 51.2185 127.713 50.6682 127.713 49.1699Z" fill="var(--fill-0, white)"/>
<path id="Vector_44" d="M134.539 52.3237V48.5965C134.539 47.6486 134.178 47.2 133.41 47.2C132.976 47.2 132.606 47.3942 132.31 47.5838V52.3237H130.631V46.0439H131.787L132.042 46.7607C132.402 46.3353 133.091 45.9145 134.03 45.9145C135.621 45.9145 136.245 46.8486 136.245 48.4393V52.3237H134.539Z" fill="var(--fill-0, white)"/>
</g>
<path id="Vector_45" d="M157.272 0H2.7237H0V2.7237V157.272V159.995H2.7237H157.267H159.991V157.272V2.7237V0H157.267H157.272ZM2.7237 2.7237H70.9457V157.272H2.72832V2.7237H2.7237ZM157.272 157.272H73.674V2.7237H157.272V157.272Z" fill="var(--fill-0, white)"/>
</g>
</svg>
