<svg preserveAspectRatio="none" width="100%" height="100%" overflow="visible" style="display: block;" viewBox="0 0 53.7258 38.9036" fill="none" xmlns="http://www.w3.org/2000/svg">
<g id="Group">
<g id="Group_2">
<path id="Vector" d="M32.4675 14.1128H32.4028L32.1438 14.2469C31.9265 14.418 31.5242 14.7279 30.8166 14.7279L30.4282 14.7001C30.0629 14.6493 29.4432 14.3302 29.4432 14.3302C29.2444 14.2284 28.9901 14.1175 28.8883 14.0712L28.8421 14.0527C27.8294 13.6319 26.9692 13.5995 26.7288 13.5995C26.4883 13.5995 25.6282 13.6319 24.6155 14.0527L24.5739 14.0712C24.4675 14.1175 24.2178 14.2284 24.0097 14.3348C24.0097 14.3348 23.3993 14.6493 23.0247 14.7001L22.6363 14.7279C21.9334 14.7279 21.5311 14.418 21.3138 14.2469L21.0594 14.1128L20.9993 14.1221L20.9623 14.1452C20.9623 14.1452 20.1577 14.64 19.8201 14.8712C19.7692 14.899 19.6398 15.0053 19.6166 15.1764L19.7554 15.5649C19.8062 15.625 20.9901 16.9984 20.9901 18.8204C21.0178 19.0284 21.1103 20.1244 20.1762 21.729C20.1346 21.8123 19.108 23.6851 20.2317 25.3221C20.2317 25.3406 21.0733 26.8666 23.5195 26.8666C23.7184 26.8666 25.5265 26.899 26.1461 28.055C26.1739 28.1013 26.4652 28.5591 26.5808 28.7903L26.7195 29.0678L26.8583 28.7903C26.9785 28.5637 27.2606 28.1105 27.3068 28.0412C27.9172 26.8943 29.7253 26.862 29.9288 26.862C32.338 26.862 33.2074 25.3406 33.2074 25.3406C34.3542 23.6573 33.2814 21.7336 33.2721 21.7244C32.3427 20.1198 32.4305 19.0238 32.4629 18.788C32.4629 16.9753 33.6791 15.5741 33.6929 15.5602L33.8317 15.1718C33.8086 15.0007 33.6791 14.8897 33.6559 14.8851C33.3045 14.6493 32.523 14.1683 32.523 14.1683L32.4583 14.1128H32.4675ZM28.3658 21.0354L29.5727 24.6099L26.5438 22.3071L23.5103 24.6099L24.7172 21.0354L21.5588 18.7695H21.5496H25.4432L26.5438 15.1487L27.6305 18.7695H31.5288H31.5195L28.3565 21.0354H28.3658Z" fill="var(--fill-0, white)"/>
<path id="Vector_2" d="M18.0675 8.68394C19.0432 9.22035 20.2825 9.14637 20.7265 9.077C21.0687 9.00301 21.4294 8.87816 21.8132 8.47584C21.9242 8.35561 22.012 8.17527 22.1739 8.17064C22.1692 8.42035 22.0814 9.72902 23.5473 10.3533L23.5889 10.5706C24.0513 12.3787 25.2675 12.1568 25.286 12.277C24.745 12.6099 24.9762 13.0816 25.1057 13.3267C25.9288 13.0724 26.5392 13.0354 26.7334 13.0354C26.9276 13.0354 27.538 13.0724 28.3612 13.3267C28.5138 13.2019 28.8328 12.9244 28.5739 12.4065C28.4536 12.1614 28.1299 12.1383 28.2687 12.1105C29.9981 11.7036 30.9276 9.17873 30.8721 8.20301C31.76 9.02613 33.7623 9.26197 35.2097 8.02729C36.1484 7.12556 36.6016 4.7533 34.997 3.56949C34.1785 2.96371 32.7265 2.91284 31.8155 3.61573C31.5288 3.13018 31.0294 2.78798 30.4976 2.78336C30.4883 2.61226 30.5207 1.47469 29.8409 0.734805C28.9716 -0.213172 26.5392 -0.282537 25.656 0.753301C23.9033 0.313995 21.6328 1.11862 21.7577 3.86082C20.5276 3.37527 19.8201 3.36602 19.1727 3.42613C18.5623 3.48625 17.7438 4.03191 17.4617 4.40648C17.3322 4.57295 17.1889 4.80417 17.0872 5.01226C16.8837 5.40533 16.7265 5.92324 16.7866 6.50128C16.8791 7.477 17.36 8.30012 18.0675 8.68394Z" fill="var(--fill-0, white)"/>
<path id="Vector_3" d="M14.6964 28.7071C14.9461 28.7579 15.1033 28.573 15.3161 28.6099L15.5103 28.7302C15.5103 28.7302 16.0837 29.3591 16.6849 29.2157C17.2814 29.077 17.0548 28.6192 17.2629 28.3695C17.4617 28.1244 16.8513 28.018 16.708 27.9672C16.449 27.8932 16.227 27.6897 16.0698 27.6111C15.7184 27.4354 15.1496 27.5464 14.7519 27.4955C14.5993 27.4724 14.382 27.3891 14.2432 27.3105C13.7253 26.9915 13.138 26.603 12.8143 26.136L12.6062 25.8539C12.4444 25.655 12.3658 25.5071 12.2409 25.1741C12.0652 24.536 12.3427 23.8562 12.4351 23.2134C12.5045 22.7371 12.486 22.7094 12.5322 22.1961C14.5669 21.4932 15.4039 19.9672 15.8802 19.1487L16.0513 18.825L16.3334 18.8481C17.1473 18.8527 17.6976 18.4042 18.5901 18.5105C18.5901 18.5568 18.7103 18.9313 19.2883 19.1718C19.3068 19.7591 19.3484 20.24 19.5704 20.6932C19.6213 20.7718 19.6814 20.8412 19.7276 20.9059C20.1114 19.9672 20.2132 19.2319 20.2224 18.788C20.1947 18.751 20.1716 18.6955 20.1531 18.6123C19.9588 17.618 19.4964 17.3452 19.0617 17.0955C18.849 16.9753 18.6085 16.9429 18.4051 16.7903C18.086 16.573 17.7531 16.3371 17.5357 15.9256L17.7531 15.6897C18.3172 15.0886 18.6085 14.2099 18.8166 13.2481C19.2513 12.6516 20.4629 12.8874 20.9253 12.9706L21.3369 13.1047C21.4664 13.1926 21.4987 13.3961 21.6791 13.4747C21.8687 13.5533 22.086 13.4932 22.3172 13.4747L22.5114 13.8261C22.5114 13.8261 22.5716 13.9371 22.7057 14.0666C23.2698 14.0527 24.0143 13.7614 24.3334 13.5995L24.2548 13.5256C24.0005 13.1972 23.6166 12.8412 23.2606 12.781C22.8074 12.7071 22.7149 12.3047 22.2802 12.2169L21.6559 12.1799C20.6987 12.3047 20.0236 11.9394 19.1311 11.8747C18.2802 11.8146 18.2571 12.3972 17.9473 12.8735C17.8317 13.0539 17.6976 13.2666 17.5588 13.4007C17.323 13.6273 17.0502 13.6365 16.7635 13.8539L16.634 13.4978C16.5554 13.2065 16.4444 12.9013 16.2548 12.6099C15.7924 11.8839 15.2652 11.3244 14.2386 11.0886C14.0398 11.0053 14.0166 10.9961 13.8825 10.8897C13.7161 10.7602 13.8363 10.6076 13.8825 10.5891C14.1739 10.4227 14.6779 10.4828 15.0109 10.3256C15.8247 9.94174 15.5427 9.25272 15.219 9.19723C14.8074 9.11862 14.0629 8.9244 13.9195 8.83654C13.7207 8.71168 13.3785 8.08741 13.0548 7.9348C12.6895 7.83769 12.819 7.25041 12.486 7.12093C12.3427 7.09781 12.1346 7.16717 11.8987 7.2874C11.8756 7.11631 11.7785 6.4874 11.427 6.27931C11.1542 6.12209 11.0525 6.36717 11.0664 6.5244C11.0802 6.66775 11.4687 6.86197 11.5427 7.49087C11.4779 7.53249 11.4132 7.56949 11.3484 7.61573C11.2929 7.35677 11.1727 6.95446 10.9091 6.79723C10.6317 6.64463 10.5346 6.88509 10.5484 7.04232C10.5623 7.18105 10.9045 7.35677 11.0062 7.88856C10.9184 7.96255 10.8398 8.03191 10.7565 8.11053C10.2016 7.95793 10.0768 7.56949 9.93803 7.54637C9.78543 7.514 9.53109 7.58798 9.66057 7.87931C9.79468 8.16602 10.2062 8.32787 10.4559 8.40648C10.3958 8.47122 10.345 8.53134 10.2941 8.59608C9.6467 8.47122 9.5126 8.04116 9.36924 8.00879C9.21202 7.98105 8.95768 8.05504 9.08716 8.34174C9.26751 8.72556 9.94728 8.89203 10.0675 8.91515C9.96577 9.08625 9.89641 9.2481 9.92416 9.35908C9.42473 9.29897 8.54612 9.56718 8.7126 10.1498C8.87907 10.2701 9.46635 9.78914 9.99815 10.0527C10.3542 10.6076 10.923 10.6308 11.0525 10.7325C11.2513 10.8897 11.2883 11.1764 11.3762 11.4308C11.538 11.9071 11.871 12.2909 12.1484 12.7117C12.4536 13.1741 12.7727 13.6643 13.0872 14.0666C13.1288 14.173 13.1658 14.2932 13.1427 14.4643C12.7773 15.0423 11.6906 15.7221 11.2421 16.1383C10.7935 16.5591 6.52531 19.8053 5.9889 21.225C5.87329 21.5441 5.7993 21.951 5.8178 22.3718C5.55421 22.5105 4.99005 22.7325 4.80508 22.4828C4.47676 22.025 5.12416 21.6782 4.9808 21.2342C4.91144 21.0631 4.66635 20.9475 4.50913 21.0631C3.44554 21.8215 3.99583 23.1718 4.66635 23.4816C5.40624 23.7915 5.50797 22.9915 6.08601 23.3152C6.22011 23.3938 7.57502 24.6007 7.34381 25.5579L7.25132 25.7799C6.95537 26.1498 6.46057 26.4319 6.123 26.7787C5.41549 27.2227 6.7889 30.0342 6.67329 31.4724C6.59005 32.0458 7.18658 31.9209 7.50566 32.9151C7.99583 33.1094 8.72184 33.0816 8.8467 32.9568C9.12878 32.6793 8.47676 31.5695 7.66288 31.44C7.37155 31.1302 6.86288 28.6331 7.18658 27.3521C9.57734 26.8481 10.3172 24.8782 10.4282 24.3186C10.9091 24.4758 11.1958 25.0354 11.219 25.2712C11.2559 25.5949 11.108 25.9325 11.2976 26.1961C11.5796 26.5845 12.1993 26.9406 12.5785 27.1995C12.708 27.2828 14.4606 28.6377 14.6872 28.6839L14.6964 28.7071Z" fill="var(--fill-0, white)"/>
<path id="Vector_4" d="M49.4201 19.8284C49.2675 17.2296 49.0594 14.9036 48.4305 12.7672C48.0513 11.4539 47.3068 8.76717 45.5681 8.39723C44.7542 8.22613 44.1392 8.97989 44.1531 9.66428C44.1669 10.2516 44.5739 10.5383 44.3935 11.1163C44.1762 11.4955 43.9588 11.9071 43.8525 12.3325C43.7461 12.7533 44.1253 12.9244 44.0051 13.3776C43.4548 13.2943 43.1773 13.7753 42.3172 13.5533C42.8814 13.2943 42.886 11.6851 42.197 11.4123L41.9565 11.2597C41.9565 11.2597 42.1785 11.0238 42.2941 10.7926C42.6872 9.98336 42.6872 9.2666 42.3727 8.72556C42.6594 8.74868 42.96 8.22613 43.0016 7.80995V7.8007C43.0016 7.7822 43.0016 7.76833 43.0016 7.74983C43.0062 7.61573 42.997 7.27353 43.1542 6.95446L43.0571 6.66313L42.775 6.77411C42.6086 7.1348 42.197 6.93596 42.3681 6.57527L42.271 6.28394L41.9889 6.3903C41.827 6.73249 41.4294 6.5429 41.5912 6.19607L41.4987 5.914L41.2166 6.02035C41.0502 6.38105 40.634 6.1822 40.8097 5.82613L40.7126 5.5348L40.4351 5.64116C40.2502 6.01573 40.1253 6.17295 39.9403 6.32556C39.5473 6.3903 39.6536 6.83885 39.7045 7.13943C38.9831 6.9822 38.4421 7.52787 38.4236 8.02266H38.3403C37.7438 8.03654 37.175 8.34174 37.2259 8.89203C37.2444 9.20186 37.6097 9.5903 37.7484 9.59492C37.8132 9.57642 37.7207 9.26197 38.0259 9.24347C38.308 9.2296 38.7288 9.46544 38.7796 9.73827C38.8444 10.0435 38.5901 10.7741 39.5612 10.8851C39.5612 10.8851 39.5519 11.0331 39.5427 11.1903C39.1958 11.1672 39.0987 11.1487 38.7565 11.2042C38.1461 11.3013 37.3045 11.6481 37.0964 12.2539L37.0548 12.7163L37.1704 13.1464L36.9762 13.4238C36.7218 13.692 36.2502 13.9464 35.8294 13.9649C35.3669 13.9926 34.9138 13.692 34.7334 13.4423C34.1184 12.6099 34.9138 11.1764 34.9045 10.6446C34.8629 9.22035 33.0687 10.0666 32.3612 10.4412C31.5149 10.8851 30.8398 11.6019 30.2664 12.3047C29.9565 12.6932 29.6051 13.1741 29.4294 13.5903L29.1843 13.6458C29.5265 13.8076 30.2201 14.0805 30.7704 14.0897C30.7704 14.0897 31.76 14.2238 32.4721 13.6319L32.7126 13.5441L32.9808 13.6597C33.0178 13.7059 34.3773 14.7741 34.7565 15.0284V15.0377L34.8213 15.1348L34.7519 15.3152C34.7519 15.3152 34.0583 16.0782 33.6051 17.151C33.938 17.7336 34.5022 18.4412 35.3207 18.4458C35.9588 18.4504 36.227 18.136 36.3242 17.7244C36.3519 17.7521 36.3704 17.766 36.3796 17.7706C36.4583 17.6967 36.8143 19.625 37.2814 20.1475C36.8421 20.351 36.1623 21.0446 36.5276 22.9452C36.1669 22.6539 35.4964 22.1498 35.182 21.8215C34.9831 21.4238 34.6224 20.4712 33.5357 20.3926C33.6929 20.8735 33.9195 21.4146 34.2664 22.0157C34.271 22.0296 34.9276 23.2365 34.7242 24.6053C35.1727 24.1429 35.1033 22.8758 35.1033 22.8758L35.2005 22.8342C35.2929 22.8296 35.7461 23.7082 36.523 23.8932C37.5357 25.6319 38.6825 26.7325 39.7831 27.4308C39.76 27.8516 39.8109 28.8504 39.5473 28.8504C38.4698 29.0909 37.508 28.1244 36.5739 28.6423C36.338 28.7718 36.9854 29.2758 37.175 29.2897C37.2583 29.2897 37.9843 29.6967 38.345 29.8816L38.4467 29.9325L38.4883 29.9556C38.7195 30.0666 39.3808 30.677 39.3808 31.2042C37.5126 31.8469 33.1704 33.151 26.8721 33.1556C19.4687 33.151 14.7519 31.3429 13.6051 30.936L12.1114 32.4897C16.4213 34.3764 21.3554 35.1579 26.8721 35.2042C32.3981 35.1579 37.3276 34.381 41.6328 32.4897C41.6421 32.4897 42.0351 32.3926 42.3311 32.3232L40.2363 30.9822C40.2502 30.9406 40.264 30.8943 40.2594 30.8666C40.2085 30.2608 39.6768 29.951 39.7785 29.7938C39.8664 29.7568 40.1762 29.914 40.3473 29.6504L40.6941 27.9348C42.6455 28.8227 44.3103 28.5498 44.6432 28.4388C44.8143 28.3695 44.9484 28.2446 44.9577 27.9857C44.9854 27.2365 43.0525 22.8481 43.0016 21.3036C43.9172 21.7568 44.4768 20.3464 44.6432 19.9209C45.8687 20.4805 46.2941 31.8654 47.2375 32.2539C47.7138 32.4481 47.8987 31.6712 47.945 31.5279C49.4617 26.4504 49.5126 21.5071 49.4155 19.8516L49.4201 19.8284Z" fill="var(--fill-0, white)"/>
</g>
<path id="Vector_5" d="M38.5068 35.5649L38.2386 34.7649C37.2398 30.751 33.7346 30.5984 33.5311 30.5521C32.486 30.3209 32.2409 29.7105 32.3242 29.6874C36.1207 28.2446 38.2386 30.8111 38.2386 30.8111C39.9727 32.9984 38.5068 35.5649 38.5068 35.5649ZM33.5542 36.9938C32.8976 36.8966 32.7588 33.6504 32.7588 33.6504C32.5045 31.2967 34.0906 31.3383 34.0906 31.3383C37.2814 31.3938 37.7716 36.203 37.7716 36.203C36.0513 37.9741 33.5542 36.9891 33.5542 36.9891M20.2039 30.5475C20.0051 30.5938 16.4999 30.7464 15.501 34.7602L15.2282 35.5602C15.2282 35.5602 13.7623 32.9938 15.501 30.8065C15.501 30.8065 17.619 28.24 21.4155 29.6828C21.4895 29.7059 21.2444 30.3209 20.1993 30.5475M20.9762 33.6458C20.9762 33.6458 20.8328 36.892 20.1808 36.9891C20.1808 36.9891 17.6837 37.9695 15.9635 36.203C15.9635 36.203 16.449 31.3938 19.6398 31.3383C19.6398 31.3383 21.2351 31.2967 20.9762 33.6504M53.6005 33.803C53.2028 33.3221 52.1577 33.5579 52.1577 33.5579C52.7218 31.8793 51.1727 31.4308 51.1727 31.4308C50.6132 31.2874 50.2479 31.3891 50.012 31.551L49.9935 31.5649L49.9843 31.5741L49.8733 31.662C49.7346 31.8099 49.6467 32.0042 49.6467 32.2215C49.6467 32.6654 50.0074 33.0261 50.456 33.0261C50.6271 33.0261 50.7843 32.9706 50.9184 32.8828C51.0802 32.7718 51.1958 32.6007 51.2374 32.4065C51.4548 32.5452 51.5334 32.7857 51.5334 32.7857C51.9866 34.2192 50.3727 34.7325 50.3727 34.7325C46.8213 35.8007 44.6432 33.9649 44.6432 33.9649L45.2675 33.6319C45.4802 33.5394 45.6791 33.5117 45.827 33.5117L45.8178 33.618C45.8178 34.0019 46.1369 34.3163 46.5207 34.3163C46.9045 34.3163 47.2282 34.0019 47.2282 33.618C47.2282 33.3267 47.0849 33.1834 47.0849 33.1834C46.6687 32.5591 45.2351 32.9753 45.2351 32.9753C45.7161 31.7961 45.2906 30.9452 45.2906 30.9452C44.6247 29.5857 43.0617 30.0111 43.0617 30.0111C42.5114 30.1776 42.4005 30.6631 42.4005 30.6631C42.1924 31.7406 43.0802 31.8331 43.0802 31.8331C43.723 31.8654 43.7322 31.3475 43.7322 31.3475C43.8109 30.8481 43.0987 30.8203 43.0987 30.8203C43.6999 29.766 45.5958 31.4955 44.3565 33.0169C44.227 33.1741 44.1068 33.0724 44.1068 33.0724C40.3796 31.2227 39.7646 30.4365 39.7646 30.4365C37.9473 28.8134 36.9716 28.4388 36.9716 28.4388C33.6791 26.8527 29.3415 30.2562 28.6155 30.9175C28.2317 31.2689 27.7924 30.788 27.7924 30.788C27.5334 30.4597 27.1912 30.3117 26.8583 30.3487C26.5253 30.3071 26.1831 30.4597 25.9288 30.788C25.9288 30.788 25.4848 31.2689 25.1057 30.9175C24.3843 30.2562 20.0421 26.8527 16.7496 28.4388C16.7496 28.4388 15.7785 28.8134 13.9565 30.4365C13.9565 30.4365 13.3461 31.2227 9.61433 33.0724C9.61433 33.0724 9.4941 33.1787 9.37387 33.0169C8.12994 31.4955 10.0259 29.766 10.627 30.8203C10.627 30.8203 9.91491 30.8481 9.99352 31.3475C9.99352 31.3475 10.0028 31.8701 10.6455 31.8331C10.6455 31.8331 11.538 31.7452 11.3253 30.6631C11.3253 30.6631 11.2143 30.1776 10.664 30.0111C10.664 30.0111 9.09641 29.5857 8.43514 30.9452C8.43514 30.9452 8.00971 31.7914 8.49063 32.9753C8.49063 32.9753 7.05711 32.5591 6.6363 33.1834C6.6363 33.1834 6.49294 33.3267 6.49294 33.618C6.49294 34.0019 6.80277 34.3163 7.19583 34.3163C7.5889 34.3163 7.89872 34.0019 7.89872 33.618L7.88947 33.5117C8.04208 33.5117 8.24092 33.5394 8.45364 33.6319L9.07329 33.9649C9.07329 33.9649 6.89526 35.8007 3.34381 34.7325C3.34381 34.7325 1.73456 34.2192 2.18774 32.7857C2.18774 32.7857 2.26635 32.5452 2.48369 32.4065C2.52994 32.6007 2.64554 32.7718 2.80739 32.8828C2.93687 32.9706 3.09872 33.0261 3.26982 33.0261C3.71375 33.0261 4.07907 32.6654 4.07907 32.2215C4.07907 32.0042 3.99121 31.8099 3.85248 31.662L3.74612 31.5741L3.73687 31.5649L3.71838 31.551C3.47329 31.3845 3.10797 31.2828 2.55768 31.4261C2.55768 31.4261 1.00393 31.8747 1.56809 33.5533C1.56809 33.5533 0.518377 33.3128 0.125313 33.7984C0.125313 33.7984 -0.00879127 33.9464 0.000457289 34.1961V34.2146L0.111441 34.5568C0.222423 34.7094 0.407394 34.8157 0.610863 34.8157C0.800458 34.8157 0.971556 34.7279 1.08254 34.5891C1.12878 34.529 1.25364 34.455 1.44786 34.6539C3.80161 37.1094 7.64439 36.0966 9.77618 34.4504C9.77618 34.4504 12.3057 31.8654 14.0999 31.981C14.0999 31.981 13.1935 33.7938 14.8305 36.24C14.8305 36.24 14.234 37.3545 13.2166 36.7394C13.2166 36.7394 12.4675 36.1614 13.1057 35.4677C13.1057 35.4677 13.5311 35.1117 13.7161 35.5602C13.4987 35.5741 13.323 35.7498 13.323 35.9718C13.323 36.1938 13.508 36.3834 13.7346 36.3834C13.9612 36.3834 14.1322 36.2123 14.1461 35.9949C14.1692 35.8284 14.1785 35.403 13.8085 35.0932C13.8085 35.0932 13.4848 34.7417 12.8744 34.8388C11.982 34.9776 11.4779 36.8504 13.2398 37.6227C13.2398 37.6227 14.627 38.2562 15.3438 37.2204C15.3438 37.2204 15.3346 37.0677 15.5981 37.3267C17.0687 38.751 20.3519 38.3394 21.6513 37.3683C21.6513 37.3683 21.9796 37.1602 22.345 36.9891C22.3635 37.5348 22.8074 37.9834 23.3669 37.9834C23.9265 37.9834 24.3889 37.5209 24.3889 36.9614C24.3889 36.4573 24.0236 36.0412 23.5473 35.9579C23.5242 35.9487 22.8721 35.7637 21.9195 36.3417L20.9762 36.8735C22.2756 34.8296 21.7022 30.0573 22.7658 30.0666C22.7658 30.0666 23.1635 30.0805 23.4317 30.4504C24.0559 31.3151 26.086 32.4065 26.086 34.3579C26.086 34.3579 26.1877 35.7128 25.8409 36.5452C25.8409 36.5452 25.2999 36.7672 25.2906 37.1417C25.2906 37.1417 25.2305 37.4192 25.7068 37.803C25.7068 37.803 26.0536 38.1914 26.1554 38.4874C26.1554 38.4874 26.1831 38.9036 26.7565 38.9036L26.8629 38.8943L26.9739 38.9036C27.5427 38.9036 27.575 38.4874 27.575 38.4874C27.6768 38.1914 28.019 37.803 28.019 37.803C28.4953 37.4192 28.4398 37.1417 28.4398 37.1417C28.4259 36.7672 27.8895 36.5452 27.8895 36.5452C27.5427 35.7128 27.6444 34.3579 27.6444 34.3579C27.6444 32.4065 29.6698 31.3198 30.2987 30.4504C30.5623 30.0805 30.9646 30.0666 30.9646 30.0666C32.0282 30.0573 31.4455 34.8296 32.7542 36.8735L31.8109 36.3417C30.8583 35.7637 30.2016 35.9487 30.1785 35.9579C29.7022 36.0412 29.3415 36.4573 29.3415 36.9614C29.3415 37.5256 29.7947 37.9834 30.3588 37.9834C30.923 37.9834 31.3623 37.5348 31.3808 36.9891C31.7415 37.1602 32.0698 37.3683 32.0698 37.3683C33.3692 38.3394 36.6571 38.751 38.1276 37.3267C38.3958 37.0677 38.382 37.2204 38.382 37.2204C39.0987 38.2516 40.4906 37.6227 40.4906 37.6227C42.2571 36.8504 41.7484 34.9776 40.8559 34.8388C40.2409 34.7417 39.9172 35.0932 39.9172 35.0932C39.5519 35.403 39.5612 35.8284 39.5797 35.9949C39.5935 36.2076 39.7692 36.3834 39.9912 36.3834C40.2132 36.3834 40.4028 36.203 40.4028 35.9718C40.4028 35.7406 40.227 35.5741 40.0097 35.5602C40.1901 35.1117 40.6201 35.4677 40.6201 35.4677C41.2629 36.1614 40.5045 36.7394 40.5045 36.7394C39.4918 37.3545 38.8906 36.24 38.8906 36.24C40.5276 33.7938 39.6259 31.981 39.6259 31.981C41.4201 31.8654 43.9496 34.4504 43.9496 34.4504C46.0768 36.0966 49.9195 37.1094 52.2825 34.6539C52.4721 34.455 52.597 34.529 52.6386 34.5845C52.7496 34.7279 52.9207 34.8157 53.1149 34.8157C53.323 34.8157 53.5033 34.7094 53.6143 34.5568L53.7253 34.2146V34.1961C53.7346 33.9464 53.6005 33.7984 53.6005 33.7984" fill="var(--fill-0, white)"/>
</g>
</svg>
