<svg preserveAspectRatio="none" width="100%" height="100%" overflow="visible" style="display: block;" viewBox="0 0 14.667 12" fill="none" xmlns="http://www.w3.org/2000/svg">
<path id="icon/device/dvr_24px" d="M13.333 0C14.0662 0 14.6668 0.599822 14.667 1.33301V9.33301C14.667 10.0663 14.0663 10.667 13.333 10.667H10V12H4.66699V10.667H1.33301C0.599822 10.6668 0 10.0662 0 9.33301V1.33301C0.000177521 0.599931 0.599931 0.00017752 1.33301 0H13.333ZM1.33301 9.33301H13.333V1.33301H1.33301V9.33301ZM4 6V7.33301H2.66699V6H4ZM12 7.33301H4.66699V6H12V7.33301ZM4 4.66699H2.66699V3.33301H4V4.66699ZM12 4.66699H4.66699V3.33301H12V4.66699Z" fill="var(--fill-0, white)"/>
</svg>
