<?xml version="1.0" encoding="UTF-8"?>
<svg id="Capa_2" data-name="Capa 2" xmlns="http://www.w3.org/2000/svg" viewBox="0 0 209.86 191.1">
  <defs>
    <style>
      .cls-1 {
        fill: #fff;
      }
    </style>
  </defs>
  <g id="Capa_1-2" data-name="Capa 1">
    <g>
      <path class="cls-1" d="M87.94,0H0v191.1h209.86V0h-121.92ZM84.41,187.56H3.53V3.53h80.87v184.03ZM206.32,187.56h-118.38V3.53h118.38v184.03Z"/>
      <path class="cls-1" d="M137.84,173.08c-.99,0-1.72.45-2.1.9l-.27-.76h-1.22v6.66h1.78v-5.03c.31-.2.71-.41,1.17-.41.82,0,1.19.47,1.19,1.48v3.95h1.81v-4.12c0-1.69-.67-2.68-2.36-2.68Z"/>
      <path class="cls-1" d="M173.38,172.13c.96,0,1.79.27,2.27.65l.68-1.45c-.75-.51-1.88-.78-3.14-.78-2.61,0-3.99,1.83-3.99,4.7,0,3.07,1.4,4.79,3.99,4.79,1.22,0,2.26-.35,3.17-.98l-.58-1.45c-.63.47-1.53.85-2.43.85-1.5,0-2.27-1.09-2.27-3.23,0-2.02.76-3.1,2.3-3.1Z"/>
      <path class="cls-1" d="M144.51,173.08c-2.04,0-3.12,1.5-3.12,3.46,0,2.28,1.13,3.47,3.12,3.47s3.12-1.21,3.12-3.47c0-1.96-1.11-3.46-3.12-3.46ZM144.51,178.7c-.87,0-1.29-.63-1.29-2.17s.47-2.17,1.29-2.17,1.3.56,1.3,2.17-.43,2.17-1.3,2.17Z"/>
      <path class="cls-1" d="M130.88,174.11h-.06c-.05-.29-.12-.58-.19-.9h-1.24v6.66h1.76v-4.84c.3-.25.72-.45,1.2-.45.31,0,.61.04.83.1.03-.5.03-1,.04-1.51-.15-.04-.41-.09-.76-.09-.79,0-1.39.54-1.59,1.01Z"/>
      <path class="cls-1" d="M156.1,172.51c0,.5.05.84.16,1.22-.37-.41-.94-.66-1.66-.66-1.62,0-2.87,1.27-2.87,3.46,0,2.38,1.21,3.46,2.72,3.46.86,0,1.49-.46,1.76-.87l.2.74h1.44v-9.37h-1.77v2.01ZM156.1,178.15c-.34.35-.79.57-1.23.57-.85,0-1.35-.59-1.35-2.18s.52-2.12,1.37-2.12c.52,0,.94.16,1.21.32v3.41Z"/>
      <path class="cls-1" d="M98.86,180c1.15,0,2.19-.26,3.42-.84v-4.01h-3l.1,1.32h1.26v1.68c-.43.2-1,.32-1.6.32-1.55,0-2.34-1.18-2.34-3.34,0-1.82.75-3.07,2.39-3.07.95,0,1.72.25,2.24.59l.76-1.34c-.72-.48-1.62-.82-3.01-.82-2.87,0-4.25,1.89-4.25,4.67s1.29,4.84,4.03,4.84Z"/>
      <path class="cls-1" d="M125.25,173.08c-2.13,0-3.11,1.4-3.11,3.45,0,2.2,1.21,3.48,3.29,3.48,1.05,0,1.94-.37,2.49-.67l-.34-1.25c-.58.28-1.25.57-1.94.57-1.11,0-1.71-.59-1.71-1.64h4.13v-.77c0-1.67-.8-3.17-2.81-3.17ZM123.93,175.97c0-.79.35-1.59,1.24-1.59s1.19.74,1.19,1.59h-2.43Z"/>
      <path class="cls-1" d="M114.44,173.08c-.75,0-1.46.41-1.76.82l.12-1.08v-2.32h-1.78v9.37h.95l.33-.8c.43.57.98.94,1.93.94,1.55,0,2.91-1.18,2.91-3.47s-1.13-3.46-2.69-3.46ZM114.01,178.7c-.48,0-.94-.31-1.21-.68v-3.11c.3-.3.79-.53,1.23-.53.82,0,1.32.56,1.32,2.15s-.57,2.17-1.34,2.17Z"/>
      <rect class="cls-1" x="118.97" y="170.5" width="1.79" height="1.61"/>
      <polygon class="cls-1" points="118.26 174.35 119.02 174.52 119.02 179.87 120.79 179.87 120.79 173.21 118.26 173.21 118.26 174.35"/>
      <path class="cls-1" d="M106.57,173.08c-2.04,0-3.12,1.5-3.12,3.46,0,2.28,1.13,3.47,3.12,3.47s3.13-1.21,3.13-3.47c0-1.96-1.11-3.46-3.13-3.46ZM106.57,178.7c-.87,0-1.29-.63-1.29-2.17s.47-2.17,1.29-2.17,1.31.56,1.31,2.17-.43,2.17-1.31,2.17Z"/>
      <path class="cls-1" d="M195.99,180.04c1.05,0,1.97-.35,2.53-.65l-.34-1.26c-.59.3-1.29.56-1.97.56-1.12,0-1.72-.59-1.72-1.65h4.17v-.78c0-1.69-.8-3.19-2.82-3.19-2.15,0-3.14,1.41-3.14,3.47,0,2.22,1.23,3.5,3.29,3.5ZM195.74,174.39c.93,0,1.19.74,1.19,1.6h-2.45c0-.79.37-1.6,1.26-1.6Z"/>
      <rect class="cls-1" x="185.48" y="170.47" width="1.8" height="1.63"/>
      <path class="cls-1" d="M188.95,170.48v7.65c0,1.19.49,1.91,1.86,1.91.47,0,.99-.11.99-.11v-1.26c-.74,0-1.08-.08-1.08-.64v-7.56h-1.77Z"/>
      <path class="cls-1" d="M162.32,173.08c-2.13,0-3.11,1.4-3.11,3.45,0,2.2,1.21,3.48,3.28,3.48,1.06,0,1.94-.37,2.5-.67l-.34-1.25c-.59.28-1.25.57-1.95.57-1.11,0-1.71-.59-1.71-1.64h4.13v-.77c0-1.67-.8-3.17-2.81-3.17ZM161.01,175.97c0-.79.35-1.59,1.24-1.59s1.19.74,1.19,1.59h-2.43Z"/>
      <polygon class="cls-1" points="184.75 174.33 185.53 174.5 185.53 179.91 187.31 179.91 187.31 173.21 184.75 173.21 184.75 174.33"/>
      <path class="cls-1" d="M179.17,173.99c.08-.21.18-.58.18-1.04v-2.47h-1.79v9.43h1.79v-5.06c.3-.22.73-.41,1.19-.41.81,0,1.19.52,1.19,1.48v3.99h1.82v-4.14c0-1.7-.54-2.69-2.45-2.69-.94,0-1.55.45-1.93.92Z"/>
      <path class="cls-1" d="M97.99,29.64h3.93l.59,2.58h2.49l-3-11.44h-3.7l-3.1,11.44h2.17l.61-2.58ZM99.65,22.72h.7l1.17,5.12h-3.12l1.25-5.12Z"/>
      <path class="cls-1" d="M105.91,33.42c0,1.53,1.76,2.29,3.51,2.29,2.09,0,3.95-1.07,3.95-3.02,0-3.12-5.27-2.07-5.27-2.97,0-.22.15-.37.41-.46.36.08.75.15,1.07.15,1.41,0,3.42-.81,3.42-2.85-.07-.54-.46-.97-.83-1.31.56.19,1.17.27,1.56.29l.03-1.64c-1.44-.02-3.31-.17-4.2-.17-1.34,0-3.42.63-3.42,2.83,0,1.19.66,1.88,1.49,2.34-.93.07-1.58.58-1.58,1.27,0,.97,1.03,1.29,2.07,1.41-1.36.2-2.2.76-2.2,1.83ZM109.55,25.32c.64,0,1.48.25,1.48,1.24,0,1.05-.8,1.31-1.48,1.31s-1.49-.25-1.49-1.31c0-.98.85-1.24,1.49-1.24ZM109.23,31.74c1.31.1,1.95.37,1.95,1.1,0,.87-.66,1.37-1.66,1.37-.9,0-1.56-.53-1.56-1.25s.49-1.15,1.27-1.22Z"/>
      <path class="cls-1" d="M118.97,32.39c1.31,0,2.44-.44,3.14-.81l-.42-1.56c-.73.37-1.59.7-2.44.7-1.39,0-2.14-.73-2.14-2.05h5.17v-.97c0-2.09-.98-3.95-3.49-3.95-2.66,0-3.9,1.75-3.9,4.31,0,2.75,1.53,4.34,4.09,4.34ZM118.66,25.37c1.15,0,1.48.92,1.48,1.98h-3.04c0-.98.46-1.98,1.56-1.98Z"/>
      <path class="cls-1" d="M126.16,25.94c.39-.25.88-.51,1.46-.51,1.02,0,1.49.59,1.49,1.85v4.93h2.25v-5.14c0-2.1-.83-3.34-2.93-3.34-1.24,0-2.15.56-2.63,1.12l-.34-.95h-1.53v8.31h2.22v-6.27Z"/>
      <path class="cls-1" d="M136.95,32.39c1.25,0,2.37-.47,2.85-.73l-.41-1.58c-.54.31-1.39.63-2.26.63-1.2,0-1.9-.76-1.9-2.64s.73-2.65,1.88-2.65c.73,0,1.49.15,2.09.51l.58-1.51c-.8-.46-1.75-.68-2.85-.68-2.46,0-3.95,1.61-3.95,4.32,0,2.92,1.49,4.32,3.97,4.32Z"/>
      <rect class="cls-1" x="141.88" y="20.52" width="2.24" height="2.02"/>
      <polygon class="cls-1" points="141.95 32.22 144.16 32.22 144.16 23.91 140.98 23.91 140.98 25.3 141.95 25.5 141.95 32.22"/>
      <path class="cls-1" d="M148.92,27.27c-2,0-3.14.92-3.14,2.46s1.12,2.66,2.78,2.66c1.17,0,2-.58,2.43-1.15l.31.98h1.51v-5.27c0-2.12-1.02-3.2-3.37-3.2-1.31,0-2.44.32-3.27.68l.56,1.58c.68-.31,1.51-.56,2.49-.56.85,0,1.46.34,1.46,1.41v.42h-1.75ZM150.67,30.32c-.41.32-.95.56-1.47.56-.83,0-1.24-.46-1.24-1.22,0-.63.42-1.07,1.34-1.07h1.37v1.73Z"/>
      <path class="cls-1" d="M161.59,32.39c1.07,0,1.86-.58,2.2-1.08l.25.92h1.8v-11.7h-2.2v2.51c0,.63.07,1.05.2,1.53-.46-.51-1.17-.81-2.07-.81-2.02,0-3.58,1.58-3.58,4.32,0,2.97,1.51,4.32,3.39,4.32ZM162.13,25.4c.64,0,1.17.2,1.51.41v4.26c-.42.44-.98.71-1.54.71-1.05,0-1.68-.75-1.68-2.73s.66-2.65,1.71-2.65Z"/>
      <path class="cls-1" d="M171.62,32.39c1.3,0,2.44-.44,3.14-.81l-.42-1.56c-.73.37-1.59.7-2.44.7-1.39,0-2.14-.73-2.14-2.05h5.17v-.97c0-2.09-.98-3.95-3.49-3.95-2.66,0-3.9,1.75-3.9,4.31,0,2.75,1.53,4.34,4.09,4.34ZM171.31,25.37c1.15,0,1.47.92,1.47,1.98h-3.03c0-.98.46-1.98,1.56-1.98Z"/>
      <path class="cls-1" d="M100.92,39.25c1.19,0,2.22.34,2.81.8l.85-1.8c-.93-.63-2.34-.97-3.9-.97-3.24,0-4.95,2.27-4.95,5.83,0,3.82,1.73,5.95,4.95,5.95,1.51,0,2.8-.44,3.93-1.22l-.71-1.8c-.78.58-1.9,1.05-3.02,1.05-1.86,0-2.81-1.36-2.81-4s.95-3.85,2.85-3.85Z"/>
      <path class="cls-1" d="M108.52,49.07c1.17,0,2-.58,2.42-1.15l.31.98h1.51v-5.27c0-2.12-1.02-3.2-3.37-3.2-1.3,0-2.44.32-3.27.68l.56,1.58c.68-.31,1.51-.56,2.49-.56.85,0,1.46.34,1.46,1.41v.42h-1.75c-2,0-3.14.92-3.14,2.46s1.12,2.66,2.78,2.66ZM109.25,45.27h1.37v1.73c-.41.32-.95.56-1.48.56-.83,0-1.24-.46-1.24-1.22,0-.63.42-1.07,1.34-1.07Z"/>
      <path class="cls-1" d="M117.02,49.07c.58,0,1.22-.14,1.22-.14v-1.56c-.92,0-1.34-.1-1.34-.8v-9.38h-2.19v9.49c0,1.47.61,2.37,2.31,2.37Z"/>
      <rect class="cls-1" x="120.29" y="37.2" width="2.24" height="2.02"/>
      <polygon class="cls-1" points="119.39 41.98 120.36 42.18 120.36 48.9 122.56 48.9 122.56 40.59 119.39 40.59 119.39 41.98"/>
      <path class="cls-1" d="M129.75,39.71c0,.63.07,1.05.2,1.53-.46-.51-1.17-.81-2.07-.81-2.02,0-3.58,1.58-3.58,4.32,0,2.97,1.51,4.32,3.39,4.32,1.07,0,1.86-.58,2.2-1.08l.25.92h1.8v-11.7h-2.2v2.51ZM129.75,46.74c-.42.44-.98.71-1.54.71-1.05,0-1.68-.75-1.68-2.73s.66-2.64,1.71-2.64c.64,0,1.17.2,1.51.41v4.26Z"/>
      <path class="cls-1" d="M137.22,40.42c-1.3,0-2.44.32-3.27.68l.56,1.58c.68-.31,1.51-.56,2.49-.56.85,0,1.46.34,1.46,1.41v.42h-1.75c-2,0-3.14.92-3.14,2.46s1.12,2.66,2.78,2.66c1.17,0,2-.58,2.42-1.15l.31.98h1.51v-5.27c0-2.12-1.02-3.2-3.37-3.2ZM138.45,47c-.41.32-.95.56-1.48.56-.83,0-1.24-.46-1.24-1.22,0-.63.42-1.07,1.34-1.07h1.37v1.73Z"/>
      <path class="cls-1" d="M142.26,44.74c0,2.97,1.51,4.32,3.39,4.32,1.07,0,1.86-.58,2.2-1.08l.25.92h1.8v-11.7h-2.2v2.51c0,.63.07,1.05.2,1.53-.46-.51-1.17-.81-2.07-.81-2.02,0-3.58,1.58-3.58,4.32ZM147.7,42.49v4.26c-.42.44-.98.71-1.54.71-1.05,0-1.68-.75-1.68-2.73s.66-2.64,1.71-2.64c.64,0,1.17.2,1.51.41Z"/>
      <path class="cls-1" d="M158.76,49.07c1.07,0,1.86-.58,2.2-1.08l.25.92h1.8v-11.7h-2.2v2.51c0,.63.07,1.05.2,1.53-.46-.51-1.17-.81-2.07-.81-2.02,0-3.58,1.58-3.58,4.32,0,2.97,1.51,4.32,3.39,4.32ZM159.3,42.08c.64,0,1.17.2,1.51.41v4.26c-.42.44-.98.71-1.54.71-1.05,0-1.68-.75-1.68-2.73s.66-2.64,1.71-2.64Z"/>
      <path class="cls-1" d="M172.09,44.37c0-2.08-.98-3.95-3.49-3.95-2.66,0-3.9,1.75-3.9,4.31,0,2.75,1.53,4.34,4.09,4.34,1.31,0,2.44-.44,3.14-.81l-.42-1.56c-.73.37-1.59.69-2.44.69-1.39,0-2.14-.73-2.14-2.05h5.17v-.97ZM166.92,44.03c0-.98.46-1.98,1.56-1.98s1.48.92,1.48,1.98h-3.04Z"/>
      <path class="cls-1" d="M179.82,49.07c.58,0,1.22-.14,1.22-.14v-1.56c-.92,0-1.34-.1-1.34-.8v-9.38h-2.19v9.49c0,1.47.61,2.37,2.31,2.37Z"/>
      <path class="cls-1" d="M185.23,43.95c-2,0-3.14.92-3.14,2.46s1.12,2.66,2.78,2.66c1.17,0,2-.58,2.42-1.15l.31.98h1.51v-5.27c0-2.12-1.02-3.2-3.37-3.2-1.31,0-2.44.32-3.27.68l.56,1.58c.68-.31,1.51-.56,2.49-.56.85,0,1.46.34,1.46,1.41v.42h-1.75ZM186.98,47c-.41.32-.95.56-1.47.56-.83,0-1.24-.46-1.24-1.22,0-.63.42-1.07,1.34-1.07h1.37v1.73Z"/>
      <polygon class="cls-1" points="96.1 65.57 103.14 65.57 103.14 63.73 98.32 63.73 98.32 60.79 101.83 60.79 102 58.83 98.32 58.83 98.32 56.01 103.14 56.01 103.14 54.13 96.1 54.13 96.1 65.57"/>
      <path class="cls-1" d="M111.53,53.88h-2.2v2.51c0,.63.07,1.05.2,1.53-.46-.51-1.17-.81-2.07-.81-2.02,0-3.58,1.58-3.58,4.32,0,2.97,1.51,4.32,3.39,4.32,1.07,0,1.86-.58,2.2-1.08l.25.92h1.8v-11.7ZM109.33,63.42c-.42.44-.98.71-1.54.71-1.05,0-1.68-.75-1.68-2.73s.66-2.64,1.71-2.64c.64,0,1.17.2,1.51.41v4.26Z"/>
      <path class="cls-1" d="M118.54,63.56c-.39.27-.92.49-1.49.49-1,0-1.46-.46-1.46-1.73v-5.05h-2.2v5.04c0,2.29.95,3.44,3.02,3.44,1.32,0,2.2-.68,2.59-1.19l.34,1.02h1.46v-8.31h-2.25v6.29Z"/>
      <path class="cls-1" d="M126.41,65.74c1.25,0,2.37-.47,2.85-.73l-.41-1.58c-.54.31-1.39.63-2.25.63-1.2,0-1.9-.76-1.9-2.64s.73-2.64,1.88-2.64c.73,0,1.49.15,2.08.51l.58-1.51c-.8-.46-1.75-.68-2.85-.68-2.46,0-3.95,1.61-3.95,4.32,0,2.92,1.49,4.32,3.97,4.32Z"/>
      <path class="cls-1" d="M133.49,60.62c-2,0-3.14.92-3.14,2.46s1.12,2.66,2.78,2.66c1.17,0,2-.58,2.42-1.15l.31.98h1.51v-5.27c0-2.12-1.02-3.2-3.37-3.2-1.3,0-2.44.32-3.27.68l.56,1.58c.68-.31,1.51-.56,2.49-.56.85,0,1.46.34,1.46,1.41v.42h-1.75ZM135.23,63.68c-.41.32-.95.56-1.48.56-.83,0-1.24-.46-1.24-1.22,0-.63.42-1.07,1.34-1.07h1.37v1.73Z"/>
      <path class="cls-1" d="M139.1,61.42c0,2.92,1.49,4.32,3.97,4.32,1.25,0,2.37-.47,2.85-.73l-.41-1.58c-.54.31-1.39.63-2.26.63-1.2,0-1.9-.76-1.9-2.64s.73-2.64,1.88-2.64c.73,0,1.49.15,2.09.51l.58-1.51c-.8-.46-1.75-.68-2.85-.68-2.46,0-3.95,1.61-3.95,4.32Z"/>
      <rect class="cls-1" x="148.01" y="53.88" width="2.24" height="2.02"/>
      <polygon class="cls-1" points="147.11 58.66 148.07 58.86 148.07 65.57 150.28 65.57 150.28 57.27 147.11 57.27 147.11 58.66"/>
      <polygon class="cls-1" points="158.16 55.13 157.87 53.5 153.59 54.71 153.81 55.98 158.16 55.13"/>
      <path class="cls-1" d="M155.86,65.74c2.48,0,3.9-1.51,3.9-4.34,0-2.44-1.39-4.31-3.9-4.31s-3.9,1.86-3.9,4.31c0,2.85,1.41,4.34,3.9,4.34ZM155.86,58.71c1.04,0,1.63.7,1.63,2.7s-.54,2.71-1.63,2.71-1.61-.78-1.61-2.71.58-2.7,1.61-2.7Z"/>
      <path class="cls-1" d="M165.9,57.1c-1.24,0-2.15.56-2.63,1.12l-.34-.95h-1.53v8.31h2.22v-6.27c.39-.25.88-.51,1.46-.51,1.02,0,1.49.59,1.49,1.85v4.93h2.25v-5.14c0-2.1-.83-3.34-2.93-3.34Z"/>
      <path class="cls-1" d="M32.85,21.54c1.2.66,2.72.57,3.26.48.42-.09.87-.25,1.34-.74.14-.14.24-.37.44-.37,0,.3-.11,1.92,1.69,2.68l.05.27c.57,2.22,2.06,1.95,2.08,2.1-.66.41-.38.99-.22,1.29,1.01-.31,1.76-.36,2-.36s.99.04,2,.36c.19-.15.58-.49.26-1.13-.15-.3-.55-.33-.37-.37,2.13-.5,3.27-3.6,3.2-4.8,1.09,1.01,3.55,1.3,5.33-.21,1.15-1.11,1.71-4.02-.26-5.48-1-.74-2.79-.81-3.91.06-.35-.6-.96-1.02-1.62-1.02-.01-.21.03-1.61-.8-2.52-1.07-1.16-4.06-1.25-5.14.02-2.15-.54-4.94.45-4.79,3.82-1.51-.6-2.38-.61-3.17-.54-.75.07-1.75.74-2.1,1.2-.16.2-.33.49-.46.74-.25.48-.44,1.12-.37,1.83.11,1.2.7,2.21,1.57,2.68Z"/>
      <path class="cls-1" d="M52.06,29.99l.17-.48c-.03-.21-.19-.35-.22-.35-.43-.29-1.39-.88-1.39-.88l-.08-.07h-.08l-.32.16c-.27.21-.76.59-1.63.59l-.48-.03c-.45-.06-1.21-.45-1.21-.45-.25-.13-.56-.26-.68-.32l-.05-.02c-1.24-.51-2.3-.56-2.59-.56s-1.35.04-2.59.56l-.05.02c-.13.05-.44.19-.69.32,0,0-.75.39-1.21.45l-.48.03c-.86,0-1.36-.38-1.63-.59l-.31-.16h-.08s-.04.04-.04.04c0,0-.99.61-1.4.89-.06.03-.22.16-.25.37l.17.48c.06.07,1.52,1.76,1.52,4,.03.26.15,1.6-1,3.57-.05.1-1.31,2.4.07,4.42,0,.02,1.03,1.9,4.04,1.9.25,0,2.47.04,3.23,1.46.03.05.39.62.53.9l.17.34.17-.34c.15-.28.5-.84.55-.92.75-1.41,2.97-1.45,3.22-1.45,2.96,0,4.02-1.87,4.02-1.87,1.41-2.07.09-4.43.08-4.44-1.14-1.97-1.03-3.32-.99-3.6,0-2.22,1.49-3.95,1.51-3.97ZM49.38,33.93l-3.88,2.78,1.48,4.39-3.72-2.83-3.72,2.83,1.48-4.39-3.88-2.78h0s4.78,0,4.78,0l1.35-4.44,1.34,4.44h4.79,0Z"/>
      <path class="cls-1" d="M11.41,53.64c.23,0,.44-.11.58-.28h0c.06-.07.21-.16.45.08,2.89,3.02,7.61,1.77,10.23-.25,0,0,1.45-1.46,3.06-2.35.64.28,1.29.53,1.95.77-.04.93.18,2.26,1.2,3.78,0,0-.73,1.37-1.98.61,0,0-.92-.71-.14-1.56,0,0,.53-.44.75.11-.27.02-.48.23-.48.5s.23.51.5.51.49-.21.5-.47c.03-.21.04-.73-.41-1.11,0,0-.4-.43-1.15-.31-1.1.17-1.72,2.47.45,3.42,0,0,1.71.78,2.58-.49,0,0-.01-.19.31.13,1.81,1.75,5.84,1.24,7.44.05,0,0,.41-.25.85-.46.02.67.57,1.22,1.26,1.22s1.25-.57,1.25-1.26c0-.62-.45-1.13-1.03-1.23-.03-.01-.83-.24-2,.47l-1.16.65c.41-.65.67-1.51.85-2.45,1.75.19,3.56.31,5.43.35-.02.54-.1,1.19-.31,1.7,0,0-.66.27-.67.74,0,0-.08.34.51.81,0,0,.43.48.55.84,0,0,.03.51.74.51h.13s.14,0,.14,0c.7,0,.74-.51.74-.51.12-.36.55-.84.55-.84.58-.47.51-.81.51-.81-.02-.46-.68-.74-.68-.74-.21-.5-.28-1.16-.31-1.7,1.87-.04,3.68-.15,5.43-.34.18.93.44,1.8.85,2.44l-1.16-.65c-1.17-.71-1.98-.48-2-.47-.59.1-1.03.61-1.03,1.23,0,.69.56,1.26,1.25,1.26s1.23-.55,1.26-1.22c.44.21.85.46.85.46,1.6,1.19,5.63,1.7,7.44-.05.33-.32.31-.13.31-.13.88,1.27,2.59.49,2.59.49,2.17-.95,1.54-3.25.45-3.42-.75-.12-1.15.31-1.15.31-.45.38-.44.9-.41,1.11.02.26.23.47.5.47s.5-.22.5-.51-.21-.49-.48-.5c.22-.55.75-.11.75-.11.79.85-.14,1.56-.14,1.56-1.24.75-1.98-.61-1.98-.61,1.02-1.52,1.23-2.84,1.2-3.77.66-.24,1.32-.5,1.96-.77,1.61.89,3.05,2.35,3.05,2.35,2.62,2.02,7.33,3.27,10.23.25.23-.24.39-.15.44-.08h0c.14.17.35.28.58.28.25,0,.47-.13.61-.32l.14-.42h0v-.02c.01-.3-.16-.49-.16-.49-.49-.59-1.77-.3-1.77-.3.69-2.06-1.21-2.61-1.21-2.61-.69-.18-1.13-.05-1.43.15l-.02.02h-.01s-.13.12-.13.12c-.17.18-.28.42-.28.69,0,.55.45.99.99.99.21,0,.41-.07.57-.18.2-.14.34-.35.39-.59.27.17.36.46.36.46.56,1.76-1.42,2.39-1.42,2.39-4.36,1.31-7.04-.94-7.04-.94l.76-.41c.26-.12.5-.15.69-.15v.13c-.01.47.38.86.85.86s.87-.39.87-.86c0-.36-.17-.53-.17-.53-.51-.77-2.27-.26-2.27-.26.59-1.45.07-2.49.07-2.49-.82-1.67-2.74-1.15-2.74-1.15-.68.2-.81.8-.81.8-.26,1.33.83,1.43.83,1.43.79.04.8-.6.8-.6.1-.61-.78-.65-.78-.65.74-1.3,3.07.83,1.54,2.7-.16.19-.3.07-.3.07-2.69-1.33-4.06-2.21-4.73-2.72,0,0,0,0,0,0-.06-.74-.71-1.12-.59-1.32.11-.04.49.15.7-.17l.43-2.11c2.4,1.09,4.44.75,4.85.62.21-.09.38-.24.39-.55.04-.92-2.34-6.31-2.4-8.21,1.12.56,1.81-1.18,2.02-1.7,1.51.69,2.03,14.67,3.18,15.15.58.24.81-.72.87-.89,1.86-6.24,1.93-12.31,1.8-14.34-.19-3.19-.44-6.05-1.21-8.67-.47-1.61-1.38-4.92-3.52-5.37-1-.21-1.76.72-1.74,1.56.02.72.52,1.08.29,1.78-.27.47-.54.97-.67,1.5-.13.52.33.73.19,1.28-.68-.1-1.02.49-2.07.22.69-.32.7-2.29-.15-2.63l-.29-.19s.28-.29.41-.57c.48-1,.48-1.88.1-2.54.35.03.72-.61.77-1.12h0s0-.01,0-.01c0-.02,0-.04,0-.06,0-.16,0-.58.19-.98l-.12-.36-.35.13c-.2.44-.71.2-.5-.24l-.12-.36-.34.13c-.2.42-.69.19-.49-.24l-.11-.35-.35.13c-.21.44-.71.2-.5-.24l-.12-.36-.34.13c-.23.46-.38.66-.61.84h0c-.48.08-.35.63-.29,1-.89-.19-1.55.48-1.57,1.09h-.1c-.73.02-1.43.39-1.37,1.07.03.38.47.86.64.86.08-.02-.04-.41.34-.43.35-.02.86.27.92.61.08.38-.23,1.27.96,1.41,0,0-.01.18-.02.37-.43-.03-.54-.05-.96.02-.75.12-1.78.55-2.04,1.29l-.05.57.14.53-.24.34c-.31.33-.89.64-1.41.67-.57.03-1.13-.33-1.35-.64-.76-1.02.22-2.78.21-3.44-.05-1.75-2.25-.71-3.13-.25-1.04.54-1.87,1.42-2.57,2.29-.38.47-.81,1.07-1.03,1.58l-.3.07c.42.2,1.27.53,1.95.54,0,0,1.21.16,2.09-.56l.3-.11.33.14c.05.05,1.72,1.37,2.18,1.68h0s.07.13.07.13l-.08.22s-.85.93-1.41,2.25c.41.72,1.11,1.59,2.11,1.59.79,0,1.11-.38,1.23-.88.03.03.06.05.07.06.09-.09.53,2.28,1.11,2.92-.54.25-1.38,1.1-.92,3.43-.44-.36-1.26-.98-1.65-1.38-.24-.49-.69-1.66-2.02-1.75.19.59.47,1.26.9,2,0,.02.81,1.5.56,3.18.55-.57.47-2.12.47-2.12l.12-.05c.11,0,.67,1.07,1.62,1.3,1.25,2.13,2.65,3.49,4.01,4.35-.03.51.04,1.74-.29,1.74-1.07.24-2.05-.48-2.99-.43-.1-.05-.16-.08-.16-.08-4.04-1.95-9.37,2.23-10.26,3.04-.47.43-1.01-.16-1.01-.16-.32-.4-.74-.59-1.15-.54-.41-.05-.83.14-1.14.54,0,0-.55.59-1.01.16-.84-.77-5.67-4.55-9.61-3.29-.09-.18-.57-.27-.71-.32-.32-.09-.59-.34-.79-.43-.43-.22-1.13-.08-1.62-.14-.19-.03-.46-.13-.63-.23-.63-.39-1.36-.87-1.75-1.44l-.26-.34c-.2-.25-.29-.43-.45-.83-.22-.78.12-1.62.24-2.41.08-.59.06-.62.12-1.25,2.5-.86,3.53-2.74,4.11-3.74l.21-.4.35.03c1,0,1.67-.55,2.77-.41,0,.06.15.52.86.81.02.72.07,1.31.35,1.87.06.1.14.18.19.26.47-1.16.6-2.06.61-2.6-.04-.05-.07-.11-.08-.22-.24-1.22-.81-1.56-1.34-1.86-.26-.15-.55-.19-.81-.37-.39-.27-.8-.56-1.07-1.06l.27-.29c.69-.74,1.05-1.82,1.31-3,.53-.73,2.02-.45,2.59-.34l.51.16c.16.11.2.36.42.46.23.1.5.02.78,0l.24.43s.07.14.24.29c.69-.02,1.61-.38,2-.57l-.1-.09c-.31-.4-.78-.84-1.22-.91-.56-.09-.67-.59-1.2-.69l-.77-.05c-1.18.15-2-.29-3.1-.37-1.04-.07-1.07.64-1.46,1.23-.14.22-.31.48-.48.65-.29.28-.63.29-.97.56l-.16-.44c-.1-.36-.23-.73-.47-1.09-.57-.89-1.22-1.58-2.48-1.87-.24-.1-.28-.11-.44-.24-.21-.16-.06-.35,0-.37.36-.2.98-.13,1.39-.32,1-.47.65-1.32.25-1.39-.51-.1-1.42-.34-1.6-.44-.24-.15-.66-.92-1.06-1.11-.45-.12-.29-.84-.7-1-.17-.03-.43.06-.72.2-.03-.21-.15-.98-.58-1.24-.34-.19-.46.11-.45.3.02.18.5.42.58,1.19-.08.05-.16.09-.24.15-.07-.32-.22-.81-.54-1.01-.34-.19-.46.11-.44.3.02.17.43.39.56,1.04-.11.09-.21.18-.31.27-.68-.19-.84-.67-1.01-.69-.19-.04-.5.05-.34.41.16.35.67.55.98.65-.07.08-.13.16-.2.23-.8-.15-.96-.68-1.14-.72-.19-.04-.5.06-.35.41.22.47,1.06.67,1.2.71-.13.21-.21.41-.18.55-.61-.07-1.69.26-1.49.97.2.15.92-.44,1.58-.12.44.68,1.14.71,1.29.83.24.19.29.54.39.86.2.58.61,1.05.95,1.57.37.57.77,1.17,1.15,1.67.05.13.09.28.07.49-.45.71-1.78,1.54-2.34,2.06-.55.52-5.79,4.51-6.45,6.25-.14.39-.23.89-.21,1.41-.32.17-1.02.45-1.25.14-.4-.56.39-.99.22-1.53-.08-.21-.39-.35-.58-.21-1.31.93-.63,2.59.19,2.97.91.38,1.04-.6,1.74-.2.16.09,1.83,1.58,1.55,2.75l-.11.27c-.37.46-.97.8-1.39,1.23-.87.55.82,4,.68,5.77-.1.68.57.57.97,1.65-.41.01-.82.11-1.02.42,0,0-.17.17-.17.53,0,.47.38.86.86.86s.87-.39.87-.86v-.13c.18,0,.42.03.69.15l.76.41s-2.68,2.26-7.04.94c0,0-1.98-.63-1.42-2.39,0,0,.1-.3.36-.46.06.24.2.45.4.59.16.11.36.18.57.18.55,0,.99-.44.99-.99,0-.27-.11-.51-.28-.69l-.13-.11h-.01s-.02-.02-.02-.02c-.3-.2-.75-.33-1.43-.15,0,0-1.91.55-1.22,2.61,0,0-1.29-.29-1.77.3,0,0-.17.18-.16.49h0v.02l.14.42c.14.19.36.32.61.32ZM51.87,56.31c-.48-.07-.74-1.53-.86-2.69,1.85-.24,3.62-.58,5.34-1.02.56,1.41.7,2.74.7,2.74-2.11,2.17-5.18.97-5.18.97ZM50.91,51.08c.24-1.73,1.62-1.72,1.62-1.72.99.02,1.77.41,2.38.99-1.16.27-2.5.52-4,.73ZM57.96,54.56l-.33-.98c-.11-.44-.25-.83-.4-1.2.49-.14.96-.29,1.44-.44-.06,1.48-.7,2.62-.7,2.62ZM50.36,47.34c4.67-1.77,7.27,1.38,7.27,1.38.2.25.36.51.49.77-.65.21-1.45.44-2.38.67-1.68-1.61-3.73-1.72-3.9-1.76-1.28-.28-1.58-1.03-1.48-1.06ZM47.88,48.28c.33-.45.82-.47.82-.47.68,0,.81,1.56,1.01,3.43-1.44.17-3.02.28-4.72.32.72-1.49,2.31-2.46,2.9-3.28ZM38.62,47.81s.49.02.82.47c.59.81,2.17,1.79,2.89,3.28-1.7-.04-3.28-.16-4.72-.32.2-1.86.33-3.43,1.01-3.42ZM29.7,53.58l-.34.98s-.64-1.14-.7-2.63c.48.15.96.31,1.44.44-.15.37-.3.76-.41,1.2ZM35.45,56.31s-3.07,1.21-5.18-.97c0,0,.14-1.34.7-2.74,1.72.44,3.49.78,5.34,1.02-.13,1.16-.38,2.62-.87,2.69ZM32.41,50.35c.61-.57,1.39-.96,2.38-.98,0,0,1.38-.02,1.63,1.71-1.51-.21-2.84-.47-4-.73ZM36.97,47.34c.09.03-.21.78-1.49,1.06-.17.04-2.21.14-3.89,1.75-.93-.23-1.73-.47-2.38-.67.14-.26.29-.51.49-.77,0,0,2.6-3.15,7.27-1.38ZM23.72,48.72s-.88.03-.78.65c0,0,.01.64.8.6,0,0,1.1-.11.83-1.43,0,0-.14-.6-.81-.8,0,0-1.92-.52-2.74,1.15,0,0-.18.38-.21.99-.22-.17-.47-.3-.73-.34-.36-.38-.98-3.45-.59-5.02,2.94-.62,3.85-3.04,3.98-3.73.59.19.94.88.97,1.17.05.4-.14.81.09,1.13.35.48,1.11.91,1.58,1.23.16.1,2.31,1.76,2.59,1.83.31.06.5-.17.76-.12l.24.15s.14.15.36.31c-.56.38-1.31.93-2.27,1.78,0,0-.75.97-5.33,3.23,0,0-.14.13-.3-.07-1.53-1.87.8-3.99,1.54-2.7Z"/>
    </g>
  </g>
</svg>